<svg xmlns="http://www.w3.org/2000/svg" viewBox="0 0 486.392 486.392" width="512" height="512"><path d="M464.413 0H21.948C9.848 0 0 9.82 0 21.918v442.555c0 12.07 9.85 21.918 21.948 21.918h442.464c12.13 0 21.98-9.848 21.98-21.917V21.918C486.39 9.818 476.54 0 464.41 0zM243.196 158.32c46.876 0 84.875 38 84.875 84.875s-37.998 84.875-84.874 84.875-84.875-38-84.875-84.875 38-84.875 84.876-84.875zm182.397 267.273H60.8V212.796h40.035c-2.098 9.82-3.314 19.972-3.314 30.4 0 80.345 65.36 145.673 145.675 145.673 80.346 0 145.674-65.33 145.674-145.675 0-10.427-1.217-20.58-3.284-30.4h40.006v212.798zm0-273.596h-91.198V60.8h91.198v91.197z" fill="#fbcc7a"/></svg>