<svg xmlns="http://www.w3.org/2000/svg" width="682.667" height="682.667" viewBox="0 0 682.66669 682.66669"><path d="M173.75 591.965c-2.024-1.77-2.736-3.24-2.73-5.187.01-3.747 0-109.274 0-109.274V368.23l-3.907-1.62c-2.227-.92-4.83-3.563-6.054-6.142l-2.15-4.526.388-42.172.388-42.172 5.232-4.522c13.11-11.327 42.325-26.165 69.434-35.262l14.667-4.92.36-27.495.36-27.494-40.603.31s-36.2 1.037-40.05-1.06c-4.082-2.224-2.815-1.426-4.02-2.373-6.976-5.488-7.097-15.782-.965-20.166 1.477-1.056.967-.744 3.13-1.655 2.674-1.125 41.417-.39 41.417-.39h41.036V113.24H209.12s-37.696.532-40.427-.588c-2.732-1.12-3.855-1.996-6.127-4.64-2.272-2.645-4.117-6.828-1.682-12.654 5.223-6.974 2.348-7.646 65.857-7.147 0 0 45.82-1.11 57.065 1.098 11.245 2.208 8.676 2.066 8.676 2.066 21.622 7.84 34.016 21.08 39.294 41.98l2.16 8.552.704 36.13.703 36.132 20.58.85c64.518 2.662 133.08 24.24 165.1 51.962l5.332 4.618.388 42.172.387 42.172-2.118 4.464c-1.166 2.455-3.59 5.134-5.39 5.953l-3.268 1.49v109.463s-.024 107.784 0 109.465c.02 1.295-1.67 3.35-3.05 4.728-1.3 1.3-3.958 3.06-4.745 3.067-2.807.024-164.87 0-164.87 0H178.813c-1.837 0-3.043-.84-5.065-2.608zm135.936-123.42V367.85l-27 .362-27 .36-.345 98.667c0 33.695.93 55.04.93 102h53.417zm54.666-.017l1.534-100.712-15.867.378-14.334.38-.345 98.665c-.262 75.142-.055 89.777-.055 101.974 7.217 0 8.926.025 15.026.025h14.042V468.527zm-56-151.955v-26h-60v52h60zm58.362-.334l.363-25.667h-33.39v52.082l16.333-.375 16.332-.374zm94.972-53.568c-47.45-27.347-168.132-28.498-231.334-2.207l-8 3.328 120.667.016c68.48.008 119.8-.484 118.666-1.138zm-153.667-46.7c.182-.036.332-9.966.332-22.066v-22h-32v48.75l15.667-2.307c8.616-1.27 15.816-2.338 16-2.375zm-.573-70.4c4.703-8.04-12.303-27.836-26.095-30.375l-5-.92v32.297h15.255c8.39 0 15.518-.45 15.84-1z" fill="#834700"/></svg>