<svg xmlns="http://www.w3.org/2000/svg" width="512" height="512" viewBox="0 0 512 512"><path d="M234.327 484.073c-62.346-9.793-113.763-52.828-133.3-111.57-7.736-23.253-7.965-30.925-1.104-36.95 4.51-3.96 309.673-5.012 316.106-1.09 8.275 5.047 8.08 15.58-.752 40.54-26.22 74.11-104.216 121.124-180.95 109.07zM101.225 304.24c-10.468-6.97-8.57-18.877 11.233-70.465 12.72-33.14 17.86-54.828 17.866-75.415.064-173.268 247.644-177.536 256.05-4.414 1.445 29.73 5.68 48.274 18.166 79.558 19.6 49.105 22.033 65.86 10.37 71.394-6.334 3.006-309.138 2.372-313.685-.657zm174.894-63.324c54.644-11.26 87.012-71.197 65.5-121.288-1.88-4.377-1.88-4.377-16.336-4.594-34.135-.512-59.936-18.203-65.365-44.817-1.218-5.966-1.218-5.966-2.51-.09-6.11 27.79-35.185 46.746-69.22 45.133-10.73-.51-10.73-.51-12.752 4.618-25.935 65.787 31.826 135.226 100.68 121.038zM218 170c-20.18-5.124-14.95-36.01 5.806-34.29 9.73.808 16.52 7.887 16.52 17.22 0 12.142-10.404 20.097-22.326 17.07zm74.827.766c-5.21-.885-6.568-1.448-9.565-3.97-14.565-12.256-3.42-34.42 15.523-30.866 7.8 1.464 14.39 11.217 13.262 19.627-1.212 9.035-10.818 16.636-19.22 15.21z" fill="#834700"/></svg>